<?xml version="1.0" encoding="UTF-8"?>
<svg width="1024px" height="1024px" viewBox="0 0 1024 1024" version="1.1" xmlns="http://www.w3.org/2000/svg" xmlns:xlink="http://www.w3.org/1999/xlink">
    <!-- Generator: Sketch 52.5 (67469) - http://www.bohemiancoding.com/sketch -->
    <title>分组 4</title>
    <desc>Created with Sketch.</desc>
    <g id="Page-1" stroke="none" stroke-width="1" fill="none" fill-rule="evenodd">
        <g id="画板" transform="translate(-544.000000, -56.000000)">
            <g id="分组-4" transform="translate(544.000000, 56.000000)">
                <rect id="矩形" fill="#EEF2FF" fill-rule="nonzero" x="0" y="0" width="1024" height="1024" rx="120"></rect>
                <g id="分组-2" transform="translate(512.000000, 512.000000) scale(-1, 1) translate(-512.000000, -512.000000) translate(137.000000, 254.000000)">
                    <path d="M303.919057,0.860510386 L725.824795,0.860510386 C738.785348,0.860510386 749.231557,11.3443442 749.231557,24.2336261 L749.231557,328.264807 C749.243852,334.455276 746.775615,340.40076 742.387807,344.784463 C737.998463,349.168166 732.036885,351.633329 725.824795,351.644047 L303.919057,351.644047 C297.699283,351.633329 291.743852,349.168166 287.349898,344.784463 C282.960553,340.40076 280.5,334.455276 280.506148,328.264807 L280.506148,24.2336261 C280.487705,18.0431573 282.948258,12.0930801 287.34375,7.7078457 C291.731557,3.32414243 297.699283,0.860510386 303.919057,0.860510386 Z" id="Fill-3" fill="#2E61FF"></path>
                    <path d="M339.087602,76.3833116 L690.650102,76.3833116 C697.14498,76.3833116 702.410348,81.6290564 702.410348,88.099727 C702.410348,94.5719288 697.14498,99.8176736 690.650102,99.8176736 L339.087602,99.8176736 C332.591189,99.8176736 327.32582,94.5719288 327.32582,88.099727 C327.32582,81.6290564 332.591189,76.3833116 339.087602,76.3833116 Z M339.087602,169.927834 L690.650102,169.927834 C697.134221,169.927834 702.391906,175.167454 702.391906,181.625875 C702.391906,188.091953 697.134221,193.331573 690.650102,193.331573 L339.087602,193.331573 C332.603484,193.331573 327.344262,188.091953 327.344262,181.625875 C327.344262,175.167454 332.603484,169.927834 339.087602,169.927834 Z M339.087602,263.489199 L690.650102,263.489199 C697.134221,263.489199 702.391906,268.728819 702.391906,275.194896 C702.391906,281.659442 697.134221,286.899062 690.650102,286.899062 L339.087602,286.899062 C332.603484,286.899062 327.344262,281.659442 327.344262,275.194896 C327.344262,268.728819 332.603484,263.489199 339.087602,263.489199 Z" id="Fill-4" fill="#EEF2FF"></path>
                    <path d="M208.685963,71.0181365 C208.685963,71.0181365 257.03791,68.0875015 257.03791,114.865887 L255.567111,303.443217 C255.567111,303.443217 254.090164,351.693045 210.16291,351.693045 L138.367316,350.950433 C138.367316,350.950433 68.0794057,356.046125 68.0794057,418.895537 C68.0794057,418.895537 69.0461066,445.206944 34.8627049,445.206944 C34.8627049,445.206944 0.227459016,447.18673 0.227459016,423.274647 L0.227459016,277.13181 C0.227459016,277.13181 3.65625,253.75257 18.28125,233.279466 L69.5502049,117.802647 C69.5502049,117.802647 81.2873975,71.0181365 116.431352,71.0181365 C129.584016,72.4895786 208.685963,71.0181365 208.685963,71.0181365 Z" id="Fill-5" fill="#2E61FF"></path>
                    <path d="M148.627561,117.802647 C148.627561,117.802647 123.743852,121.486611 115.681352,139.022955 L46.1127049,261.785021 L45.6869877,281.134255 L69.5256148,280.756059 C69.5256148,280.756059 68.0794057,258.076558 93.6900615,258.076558 L185.998463,257.329353 C193.310963,259.541875 210.16291,253.643858 210.16291,233.97308 L210.16291,141.821911 C210.16291,141.821911 212.354508,117.724558 187.469262,117.724558 L148.627561,117.724558 L148.627561,117.802647 Z M174.988217,281.533887 L198.481045,281.533887 C204.969775,281.533887 210.228996,286.773507 210.228996,293.23346 C210.228996,299.699537 204.969775,304.937626 198.481045,304.937626 L175.043545,304.937626 C168.553279,304.949875 163.281762,299.722504 163.269467,293.262552 C163.252561,286.798006 168.499488,281.546136 174.988217,281.533887 Z" id="Fill-6" fill="#EEF2FF"></path>
                    <path d="M162.585553,374.563941 C201.800717,374.563941 233.625,405.337139 233.625,444.488831 C233.641906,483.599181 201.842213,515.329353 162.585553,515.370694 C123.341189,515.370694 92.5066598,483.61143 92.5066598,444.488831 C92.2914959,425.89905 99.6039959,408.004415 112.787398,394.84565 C125.976947,381.686884 143.92623,374.378671 162.585553,374.563941 Z M257.03791,375.072285 L538.306352,375.072285 C538.306352,375.072285 560.302254,403.57784 560.302254,422.579501 L280.45082,422.579501 C280.45082,422.579501 257.03791,405.767395 257.03791,375.072285 Z M654.754611,375.072285 C673.221824,375.072285 690.931352,382.386623 703.984119,395.40146 C717.035348,408.416297 724.358607,426.061353 724.347848,444.459739 C723.302766,481.989935 692.46209,511.872 654.779201,511.872 C617.094775,511.872 586.255635,481.989935 585.210553,444.459739 C585.210553,406.174682 616.344775,375.119751 654.779201,375.072285 L654.754611,375.072285 Z" id="Fill-7" fill="#2E61FF"></path>
                </g>
            </g>
        </g>
    </g>
</svg>